:FULLY-SPECIFIED
:FORCE-ALL-JOINTS-BE-3DOF
:DEGREES
1937
root 5.3584 13.8343 28.4989 1013.32 65.6001 287.394
lfemur -63.0335 13.7885 -14.0925
ltibia 59.4635 0 0
lfoot -6.22973 2.27506 0
ltoes -31.5761 0 0
rfemur -3.99691 -5.71499 21.8865
rtibia 56.9238 0 0
rfoot -28.1745 -33.1155 0
rtoes -27.7537 0 0
lowerback 11.8536 3.59296 4.508
upperback -1.01004 5.90325 4.12089
thorax -7.7944 2.82798 0.830576
lowerneck -0.618952 14.9191 7.19436
upperneck 4.70711 20.2471 -7.32495
head 3.28886 10.0838 -2.73936
lclavicle 7.50642e-14 2.13087e-14 0
lhumerus 75.2815 -17.3938 63.9693
lradius 53.0581 0 0
lwrist -21.4633 0 0
lhand -20.2869 34.088 0
lfingers 7.12502 0 0
lthumb 6.06268 88.863 0
rclavicle 7.50642e-14 2.13087e-14 0
rhumerus -45.5723 28.3677 -76.8338
rradius 100.002 0 0
rwrist -49.0869 0 0
rhand -9.17367 -399.992 0
rfingers 7.12502 0 0
rthumb 16.7779 290.728 0
1938
root 5.21957 13.8464 28.5316 1009.63 65.8935 283.713
lfemur -63.0917 13.3532 -14.9725
ltibia 58.481 0 0
lfoot -6.12496 2.77084 0
ltoes -31.6058 0 0
rfemur -4.46298 -5.38468 22.2749
rtibia 57.2684 0 0
rfoot -28.2225 -33.2076 0
rtoes -27.9291 0 0
lowerback 12.0109 3.48341 4.59305
upperback -0.976835 5.78275 4.11316
thorax -7.84283 2.76523 0.789764
lowerneck -0.649421 14.8809 7.17704
upperneck 4.60665 20.19 -7.37596
head 3.25927 10.0546 -2.75886
lclavicle 6.89682e-14 1.91689e-14 0
lhumerus 76.598 -18.5717 61.7481
lradius 56.1732 0 0
lwrist -19.2008 0 0
lhand -20.0933 34.1513 0
lfingers 7.12502 0 0
lthumb 6.24959 90.9012 0
rclavicle 6.89682e-14 1.91689e-14 0
rhumerus -44.5049 29.3511 -76.462
rradius 100.046 0 0
rwrist -48.8432 0 0
rhand -8.96137 -399.988 0
rfingers 7.12502 0 0
rthumb 16.9822 290.749 0
1939
root 5.07888 13.8587 28.5645 1005.9 66.1826 279.992
lfemur -63.1465 12.9201 -15.8558
ltibia 57.4941 0 0
lfoot -6.02164 3.27372 0
ltoes -31.6292 0 0
rfemur -4.93325 -5.05244 22.666
rtibia 57.6132 0 0
rfoot -28.2699 -33.2996 0
rtoes -28.1073 0 0
lowerback 12.1708 3.37262 4.68019
upperback -0.943079 5.66115 4.10578
thorax -7.89189 2.70187 0.748224
lowerneck -0.680811 14.8416 7.15894
upperneck 4.50522 20.1315 -7.42722
head 3.22935 10.0246 -2.77838
lclavicle 6.26958e-14 1.6971e-14 0
lhumerus 77.9155 -19.7502 59.515
lradius 59.3059 0 0
lwrist -16.9371 0 0
lhand -19.9028 34.2207 0
lfingers 7.12502 0 0
lthumb 6.43356 92.8819 0
rclavicle 6.26958e-14 1.6971e-14 0
rhumerus -43.4392 30.339 -76.0939
rradius 100.098 0 0
rwrist -48.6115 0 0
rhand -8.74959 -399.989 0
rfingers 7.12502 0 0
rthumb 17.186 290.767 0
1940
root 4.93658 13.8713 28.5974 1002.14 66.4664 276.241
lfemur -63.1975 12.4908 -16.7395
ltibia 56.5061 0 0
lfoot -5.92028 3.78289 0
ltoes -31.6455 0 0
rfemur -5.40676 -4.7198 23.0587
rtibia 57.9573 0 0
rfoot -28.3167 -33.391 0
rtoes -28.2877 0 0
lowerback 12.3326 3.26081 4.76904
upperback -0.908887 5.53864 4.09878
thorax -7.94142 2.63801 0.70619
lowerneck -0.713048 14.8014 7.14007
upperneck 4.40302 20.0716 -7.47861
head 3.19915 9.99395 -2.7979
lclavicle 5.62733e-14 1.47251e-14 0
lhumerus 79.2285 -20.9257 57.2763
lradius 62.4461 0 0
lwrist -14.679 0 0
lhand -19.7159 34.2966 0
lfingers 7.12502 0 0
lthumb 6.61401 94.7862 0
rclavicle 5.62733e-14 1.47251e-14 0
rhumerus -42.3786 31.3283 -75.7307
rradius 100.157 0 0
rwrist -48.3923 0 0
rhand -8.53847 -399.993 0
rfingers 7.12502 0 0
rthumb 17.3892 290.781 0
1941
root 4.79294 13.884 28.6303 998.353 66.7437 272.469
lfemur -63.2444 12.0667 -17.621
ltibia 55.5202 0 0
lfoot -5.8214 4.29754 0
ltoes -31.6539 0 0
rfemur -5.88256 -4.38828 23.4515
rtibia 58.3 0 0
rfoot -28.3624 -33.4816 0
rtoes -28.4695 0 0
lowerback 12.4958 3.1482 4.85921
upperback -0.874375 5.41542 4.09219
thorax -7.99124 2.57375 0.663896
lowerneck -0.746058 14.7602 7.12046
upperneck 4.30024 20.0103 -7.53003
head 3.16871 9.96259 -2.81735
lclavicle 4.97269e-14 1.2441e-14 0
lhumerus 80.5311 -22.0943 55.0386
lradius 65.5837 0 0
lwrist -12.4329 0 0
lhand -19.5333 34.3792 0
lfingers 7.12502 0 0
lthumb 6.79031 96.5951 0
rclavicle 4.97269e-14 1.2441e-14 0
rhumerus -41.3264 32.3158 -75.3734
rradius 100.222 0 0
rwrist -48.186 0 0
rhand -8.32816 -400.001 0
rfingers 7.12502 0 0
rthumb 17.5916 290.792 0
1942
root 4.64819 13.897 28.6629 994.559 67.0132 268.684
lfemur -63.2867 11.6493 -18.4975
ltibia 54.5396 0 0
lfoot -5.72552 4.81687 0
ltoes -31.6535 0 0
rfemur -6.35972 -4.05942 23.8434
rtibia 58.6406 0 0
rfoot -28.407 -33.5713 0
rtoes -28.6519 0 0
lowerback 12.6599 3.03502 4.95031
upperback -0.839659 5.29168 4.08604
thorax -8.04119 2.50921 0.621577
lowerneck -0.779767 14.7181 7.10011
upperneck 4.19707 19.9478 -7.58136
head 3.13808 9.9306 -2.83671
lclavicle 4.3083e-14 1.01287e-14 0
lhumerus 81.8178 -23.2524 52.8081
lradius 68.7086 0 0
lwrist -10.2053 0 0
lhand -19.3556 34.4689 0
lfingers 7.12502 0 0
lthumb 6.96188 98.29 0
rclavicle 4.3083e-14 1.01287e-14 0
rhumerus -40.2859 33.2983 -75.0233
rradius 100.293 0 0
rwrist -47.993 0 0
rhand -8.1188 -400.013 0
rfingers 7.12502 0 0
rthumb 17.793 290.799 0
1943
root 4.50261 13.9101 28.6952 990.761 67.2737 264.896
lfemur -63.324 11.24 -19.3661
ltibia 53.5676 0 0
lfoot -5.63315 5.34005 0
ltoes -31.6435 0 0
rfemur -6.83729 -3.73476 24.2329
rtibia 58.978 0 0
rfoot -28.4502 -33.6597 0
rtoes -28.8342 0 0
lowerback 12.8242 2.92147 5.04197
upperback -0.804853 5.1676 4.08034
thorax -8.09108 2.44451 0.579467
lowerneck -0.814102 14.6752 7.07904
upperneck 4.0937 19.8842 -7.6325
head 3.10731 9.89801 -2.85594
lclavicle 3.63678e-14 7.79801e-15 0
lhumerus 83.0828 -24.3963 50.5914
lradius 71.8107 0 0
lwrist -8.00289 0 0
lhand -19.1834 34.5657 0
lfingers 7.12502 0 0
lthumb 7.12812 99.8519 0
rclavicle 3.63678e-14 7.79801e-15 0
rhumerus -39.2603 34.2726 -74.6815
rradius 100.37 0 0
rwrist -47.8138 0 0
rhand -7.91054 -400.028 0
rfingers 7.12502 0 0
rthumb 17.9934 290.802 0
1944
root 4.35644 13.9234 28.7271 986.969 67.5242 261.114
lfemur -63.3561 10.8404 -20.2243
ltibia 52.6074 0 0
lfoot -5.54481 5.8663 0
ltoes -31.623 0 0
rfemur -7.31431 -3.41582 24.6187
rtibia 59.3117 0 0
rfoot -28.4918 -33.7465 0
rtoes -29.0157 0 0
lowerback 12.9881 2.80778 5.13378
upperback -0.770074 5.04337 4.07512
thorax -8.14077 2.37976 0.5378
lowerneck -0.848988 14.6314 7.05726
upperneck 3.99032 19.8194 -7.68334
head 3.07645 9.86486 -2.87498
lclavicle 2.96077e-14 5.45891e-15 0
lhumerus 84.3204 -25.5222 48.3947
lradius 74.8799 0 0
lwrist -5.83213 0 0
lhand -19.0174 34.6701 0
lfingers 7.12502 0 0
lthumb 7.28841 101.262 0
rclavicle 2.96077e-14 5.45891e-15 0
rhumerus -38.2531 35.2355 -74.3492
rradius 100.451 0 0
rwrist -47.6487 0 0
rhand -7.70353 -400.046 0
rfingers 7.12502 0 0
rthumb 18.1925 290.803 0
1945
root 4.20993 13.9368 28.7585 983.192 67.7633 257.346
lfemur -63.3824 10.4519 -21.0691
ltibia 51.6622 0 0
lfoot -5.46101 6.39478 0
ltoes -31.5912 0 0
rfemur -7.78983 -3.10414 24.9998
rtibia 59.6407 0 0
rfoot -28.5315 -33.8315 0
rtoes -29.1956 0 0
lowerback 13.1512 2.69417 5.22537
upperback -0.735436 4.9192 4.07041
thorax -8.19007 2.31507 0.49681
lowerneck -0.884351 14.5868 7.03478
upperneck 3.88711 19.7535 -7.73376
head 3.04554 9.83117 -2.8938
lclavicle 2.28289e-14 3.12128e-15 0
lhumerus 85.5249 -26.6264 46.2246
lradius 77.9062 0 0
lwrist -3.6996 0 0
lhand -18.8581 34.7823 0
lfingers 7.12502 0 0
lthumb 7.44216 102.501 0
rclavicle 2.28289e-14 3.12128e-15 0
rhumerus -37.2673 36.184 -74.0275
rradius 100.536 0 0
rwrist -47.4983 0 0
rhand -7.49791 -400.067 0
rfingers 7.12502 0 0
rthumb 18.3904 290.8 0
1946
root 4.06334 13.9503 28.7891 979.439 67.9899 253.602
lfemur -63.4026 10.076 -21.8979
ltibia 50.7352 0 0
lfoot -5.38227 6.9247 0
ltoes -31.5472 0 0
rfemur -8.26292 -2.80125 25.3746
rtibia 59.9643 0 0
rfoot -28.569 -33.9144 0
rtoes -29.3732 0 0
lowerback 13.3128 2.58085 5.31635
upperback -0.701054 4.79526 4.06622
thorax -8.23881 2.25055 0.45673
lowerneck -0.920117 14.5415 7.01163
upperneck 3.78428 19.6866 -7.78366
head 3.01464 9.79698 -2.91236
lclavicle 1.60577e-14 7.95054e-16 0
lhumerus 86.6907 -27.7052 44.0875
lradius 80.8793 0 0
lwrist -1.61184 0 0
lhand -18.7063 34.9026 0
lfingers 7.12502 0 0
lthumb 7.58876 103.551 0
rclavicle 1.60577e-14 7.95054e-16 0
rhumerus -36.3065 37.1147 -73.7176
rradius 100.624 0 0
rwrist -47.3628 0 0
rhand -7.29383 -400.091 0
rfingers 7.12502 0 0
rthumb 18.5867 290.795 0
1947
root 3.91692 13.9639 28.819 975.719 68.2029 249.891
lfemur -63.4164 9.71404 -22.7079
ltibia 49.8297 0 0
lfoot -5.30911 7.45525 0
ltoes -31.4902 0 0
rfemur -8.73262 -2.50869 25.742
rtibia 60.2817 0 0
rfoot -28.6042 -33.9949 0
rtoes -29.5477 0 0
lowerback 13.4724 2.46805 5.40633
upperback -0.667044 4.67176 4.06259
thorax -8.28683 2.18632 0.417796
lowerneck -0.956213 14.4955 6.98781
upperneck 3.682 19.6188 -7.83292
head 2.98378 9.76233 -2.93061
lclavicle 9.32039e-15 -1.50987e-15 0
lhumerus 87.8121 -28.7549 41.9897
lradius 83.7893 0 0
lwrist 0.424588 0 0
lhand -18.5624 35.0311 0
lfingers 7.12502 0 0
lthumb 7.72762 104.393 0
rclavicle 9.32039e-15 -1.50987e-15 0
rhumerus -35.3737 38.0245 -73.4206
rradius 100.716 0 0
rwrist -47.2428 0 0
rhand -7.09143 -400.118 0
rfingers 7.12502 0 0
rthumb 18.7814 290.786 0
1948
root 3.77093 13.9776 28.8479 972.042 68.4009 246.222
lfemur -63.4233 9.36764 -23.4964
ltibia 48.9489 0 0
lfoot -5.24204 7.98561 0
ltoes -31.4193 0 0
rfemur -9.19798 -2.22798 26.1007
rtibia 60.592 0 0
rfoot -28.6369 -34.0728 0
rtoes -29.7185 0 0
lowerback 13.6293 2.35599 5.49493
upperback -0.633521 4.54888 4.05953
thorax -8.33396 2.12249 0.380242
lowerneck -0.992564 14.4488 6.96334
upperneck 3.58048 19.5501 -7.88144
head 2.95303 9.72726 -2.94852
lclavicle 2.64333e-15 -3.78358e-15 0
lhumerus 88.8833 -29.7717 39.9377
lradius 86.626 0 0
lwrist 2.40314 0 0
lhand -18.4272 35.1683 0
lfingers 7.12502 0 0
lthumb 7.85813 105.007 0
rclavicle 2.64333e-15 -3.78358e-15 0
rhumerus -34.4724 38.9102 -73.1378
rradius 100.809 0 0
rwrist -47.1386 0 0
rhand -6.89086 -400.148 0
rfingers 7.12502 0 0
rthumb 18.9743 290.775 0
